<svg id="Group_4" data-name="Group 4" xmlns="http://www.w3.org/2000/svg" width="144.59" height="144.59" viewBox="0 0 144.59 144.59">
  <g id="Group_3" data-name="Group 3">
    <rect id="Rectangle_1" data-name="Rectangle 1" width="48.856" height="11.296" transform="translate(0 94.887)"/>
    <rect id="Rectangle_2" data-name="Rectangle 2" width="40.384" height="11.296" transform="translate(0 117.48)"/>
    <rect id="Rectangle_3" data-name="Rectangle 3" width="57.328" height="11.296" transform="translate(0 72.295)"/>
    <path id="Path_9" data-name="Path 9" d="M126.552,31.276l5.145-5.958,6.412,5.538,7.383-8.549L124.12,3.848,116.736,12.4l6.412,5.538L118,23.9A65.99,65.99,0,0,0,84.625,11.535V0h-11.3V11.535a65.992,65.992,0,0,0-33.545,12.49l-5.26-6.091L40.936,12.4,33.552,3.848,12.179,22.306l7.383,8.549,6.412-5.538,5.276,6.109A66.212,66.212,0,0,0,14.5,61H26.282a55.37,55.37,0,1,1,26.431,65.657v12.575A66.661,66.661,0,0,0,126.552,31.276Z" transform="translate(-1.034)"/>
    <path id="Path_10" data-name="Path 10" d="M79,37.031v49.7h37.56v-11.3H90.3V37.031Z" transform="translate(-6.705 -3.143)"/>
  </g>
</svg>
