<?xml version="1.0" standalone="no"?>
<!DOCTYPE svg PUBLIC "-//W3C//DTD SVG 20010904//EN"
 "http://www.w3.org/TR/2001/REC-SVG-20010904/DTD/svg10.dtd">
<svg version="1.0" xmlns="http://www.w3.org/2000/svg"
 width="445.000000pt" height="332.000000pt" viewBox="0 0 445.000000 332.000000"
 preserveAspectRatio="xMidYMid meet">

<g transform="translate(0.000000,332.000000) scale(0.100000,-0.100000)"
fill="#000000" stroke="none">
<path d="M705 3297 c-63 -21 -97 -42 -142 -89 -68 -70 -87 -123 -93 -263 l-5
-120 -90 -6 c-73 -4 -103 -11 -157 -37 -84 -40 -152 -106 -186 -180 l-27 -57
0 -1050 0 -1050 27 -57 c52 -111 171 -195 308 -217 36 -6 154 -11 263 -11
l197 0 0 -50 c0 -42 5 -55 26 -75 59 -55 142 -18 151 68 l6 47 1242 0 1242 0
6 -47 c10 -88 89 -122 148 -64 22 23 29 39 29 69 l0 40 238 4 c265 6 301 13
407 83 60 40 130 135 140 188 3 18 4 502 3 1077 l-3 1045 -25 50 c-50 102
-182 197 -296 213 l-49 7 -7 110 c-8 135 -32 205 -94 274 -26 29 -68 61 -102
78 -50 24 -69 27 -152 28 -113 0 -162 -18 -238 -89 -77 -72 -105 -144 -110
-283 l-5 -113 -1102 0 -1103 0 -4 118 c-3 100 -7 125 -29 172 -33 70 -99 136
-169 168 -65 31 -183 39 -245 19z m189 -167 c23 -11 52 -36 66 -57 23 -33 25
-46 25 -142 l0 -106 -172 -3 -173 -2 0 102 c0 88 4 109 23 143 42 76 148 106
231 65z m2902 1 c75 -34 107 -110 102 -236 l-3 -70 -170 0 -170 0 -6 85 c-4
47 -3 101 2 120 9 39 59 93 99 109 40 16 101 12 146 -8z m-2129 -843 c10 -17
12 -1556 1 -1585 l-8 -23 -575 0 -575 0 0 803 c0 442 3 807 7 810 3 4 262 7
574 7 443 0 570 -3 576 -12z m2248 -798 l0 -805 -577 -3 c-318 -1 -579 1 -579
5 -5 28 -6 1446 -2 1521 l6 92 576 -2 576 -3 0 -805z m-1632 756 c114 -41 175
-151 147 -268 -22 -92 -121 -168 -217 -168 -95 0 -191 76 -213 171 -41 170
121 322 283 265z m1 -1088 c62 -19 130 -91 146 -156 35 -147 -66 -276 -215
-276 -129 0 -219 90 -219 219 0 154 139 257 288 213z"/>
<path d="M1003 1921 c-51 -13 -118 -57 -162 -107 -23 -26 -41 -50 -41 -53 0
-3 25 -21 55 -39 l54 -33 44 45 c137 136 342 22 257 -143 -10 -21 -105 -129
-210 -239 l-190 -201 0 -65 0 -66 295 0 296 0 -3 73 -3 72 -193 3 -194 2 113
118 c210 218 249 278 249 382 0 96 -49 180 -131 225 -43 23 -68 29 -129 31
-41 2 -89 -1 -107 -5z"/>
<path d="M3259 2007 c-143 -41 -259 -176 -295 -346 -21 -101 -18 -301 6 -395
48 -189 153 -299 318 -335 95 -20 197 -10 289 30 102 44 194 171 230 317 22
90 22 294 0 385 -36 147 -121 263 -234 319 -57 28 -76 32 -166 35 -63 2 -119
-2 -148 -10z m237 -186 c117 -53 182 -237 155 -435 -28 -202 -133 -301 -298
-282 -101 12 -156 55 -205 162 -21 44 -23 64 -23 204 0 150 1 157 29 218 30
65 77 115 130 138 46 20 163 17 212 -5z"/>
</g>
</svg>
