<?xml version="1.0" standalone="no"?>
<!DOCTYPE svg PUBLIC "-//W3C//DTD SVG 20010904//EN"
 "http://www.w3.org/TR/2001/REC-SVG-20010904/DTD/svg10.dtd">
<svg version="1.0" xmlns="http://www.w3.org/2000/svg"
 width="460.000000pt" height="470.000000pt" viewBox="0 0 460.000000 470.000000"
 preserveAspectRatio="xMidYMid meet">

<g transform="translate(0.000000,470.000000) scale(0.100000,-0.100000)"
fill="#000000" stroke="none">
<path d="M1130 4630 c0 -38 -2 -70 -5 -70 -3 0 -28 11 -55 25 -74 38 -211 74
-316 84 -245 22 -448 -39 -584 -178 -110 -112 -160 -243 -160 -423 0 -157 53
-274 189 -420 147 -157 405 -331 651 -439 212 -93 236 -166 109 -336 -48 -64
-56 -100 -35 -141 37 -72 112 -84 173 -28 l37 34 17 -83 c37 -184 139 -371
279 -515 92 -94 230 -191 335 -235 36 -16 65 -32 65 -37 0 -19 -70 -116 -138
-192 -66 -74 -162 -234 -162 -272 0 -12 -28 -14 -161 -14 -166 0 -190 -5 -221
-44 -16 -19 -18 -56 -18 -396 l0 -376 -135 -216 c-142 -228 -154 -257 -119
-306 38 -55 -39 -52 1424 -52 1463 0 1386 -3 1424 52 35 49 23 78 -119 306
l-135 216 0 376 c0 340 -2 377 -18 396 -31 39 -55 44 -219 44 l-158 0 -17 48
c-27 73 -87 168 -157 246 -62 69 -131 166 -131 184 0 5 29 21 64 36 300 128
551 434 615 751 l17 83 37 -34 c61 -56 136 -44 173 28 21 41 13 77 -35 141
-127 170 -103 243 109 336 246 108 504 282 651 439 136 146 189 263 189 420 0
180 -50 311 -160 423 -136 139 -339 200 -584 178 -105 -10 -242 -46 -316 -84
-27 -14 -52 -25 -55 -25 -3 0 -5 32 -5 70 l0 70 -1170 0 -1170 0 0 -70z m2130
-977 c0 -517 -4 -852 -10 -893 -59 -371 -349 -661 -720 -720 -84 -13 -376 -13
-460 0 -371 59 -661 349 -720 720 -6 41 -10 376 -10 893 l0 827 960 0 960 0 0
-827z m-2392 777 c89 -25 163 -61 220 -107 l42 -34 0 -490 c0 -269 -3 -489 -8
-489 -4 0 -23 11 -42 24 -19 13 -78 43 -130 67 -354 163 -619 367 -696 535
-32 68 -39 128 -25 209 29 163 126 262 295 301 83 19 249 11 344 -16z m3203
16 c172 -37 271 -136 300 -301 14 -81 7 -141 -24 -209 -78 -168 -345 -373
-697 -535 -52 -24 -111 -54 -130 -67 -19 -13 -38 -24 -42 -24 -5 0 -8 220 -8
489 l0 490 43 34 c135 110 372 162 558 123z m-1477 -2709 c26 -45 79 -118 118
-162 67 -74 128 -159 128 -177 0 -4 -243 -8 -540 -8 -297 0 -540 4 -540 8 0
18 61 103 128 177 39 44 92 117 118 162 l46 83 248 0 248 0 46 -83z m666 -827
l0 -270 -960 0 -960 0 0 270 0 270 960 0 960 0 0 -270z m108 -579 c34 -54 62
-102 62 -105 0 -3 -508 -6 -1130 -6 -621 0 -1130 3 -1130 6 0 3 28 51 62 105
l61 99 1007 0 1007 0 61 -99z"/>
</g>
</svg>
